<svg width="24" height="24" viewBox="0 0 24 24" fill="none" xmlns="http://www.w3.org/2000/svg">
<rect width="24" height="24" fill="#1E1E1E" fill-opacity="0.9"/>
<path d="M0 5C0 2.23858 2.23858 0 5 0H19C21.7614 0 24 2.23858 24 5V19C24 21.7614 21.7614 24 19 24H5C2.23858 24 0 21.7614 0 19V5Z" fill="#15349C"/>
<circle cx="12" cy="12" r="10" fill="#D9D9D9" fill-opacity="0.47"/>
<path d="M14.8 15.5V15.85C14.8 16.8169 12.9188 17.6 10.6 17.6C8.28125 17.6 6.4 16.8169 6.4 15.85V15.5C6.4 14.8306 7.30344 14.2487 8.63125 13.9534C8.68375 14.0147 8.73844 14.0737 8.79312 14.1284C9.13219 14.4631 9.56969 14.7169 10.0269 14.905C10.9434 15.2878 12.1378 15.4978 13.4 15.4978C13.8791 15.4978 14.3472 15.4672 14.7956 15.4081C14.8 15.4366 14.8 15.4672 14.8 15.4978V15.5ZM8.15 9.87812V10.8887C7.81969 10.9741 7.50906 11.0747 7.22687 11.1928C6.93812 11.3131 6.65594 11.4597 6.4 11.6369V11.3C6.4 10.7137 7.08906 10.1953 8.15 9.87812ZM8.15 11.9781V12.7C8.15 12.7984 8.15875 12.8925 8.17188 12.9844C7.83281 13.0697 7.51562 13.1725 7.22687 13.295C6.93812 13.4175 6.65594 13.5619 6.4 13.7391V13.4022C6.4 12.8159 7.08906 12.2975 8.15 11.9803V11.9781ZM17.6 12.35V12.7C17.6 13.6669 15.7188 14.45 13.4 14.45C11.0812 14.45 9.2 13.6669 9.2 12.7V12.35C9.2 11.3831 11.0812 10.6 13.4 10.6C15.7188 10.6 17.6 11.3831 17.6 12.35ZM9.2 10.25C9.2 9.28312 11.0812 8.5 13.4 8.5C15.7188 8.5 17.6 9.28312 17.6 10.25V10.5869C17.3463 10.4097 17.0641 10.2653 16.7731 10.1428C15.8566 9.76 14.6622 9.55 13.4 9.55C12.1378 9.55 10.9434 9.76219 10.0269 10.1428C9.73812 10.2631 9.45594 10.4097 9.2 10.5869V10.25ZM9.2 8.48687V8.15C9.2 7.18312 11.0812 6.4 13.4 6.4C15.7188 6.4 17.6 7.18312 17.6 8.15V8.48687C17.3463 8.30968 17.0641 8.16531 16.7731 8.04281C15.8566 7.66 14.6622 7.45 13.4 7.45C12.1378 7.45 10.9434 7.66219 10.0269 8.04281C9.73812 8.16312 9.45594 8.30968 9.2 8.48687Z" fill="#FFD43B"/>
</svg>
